<svg width="40" height="40" viewBox="0 0 40 40" fill="none" xmlns="http://www.w3.org/2000/svg">
<circle cx="20" cy="20" r="20" fill="#0476FE"/>
<path d="M23.0658 12.6829H16.9341C14.2707 12.6829 12.6829 14.2707 12.6829 16.9341V23.0585C12.6829 25.7293 14.2707 27.3171 16.9341 27.3171H23.0585C25.7219 27.3171 27.3098 25.7293 27.3098 23.0658V16.9341C27.3171 14.2707 25.7293 12.6829 23.0658 12.6829ZM19.2317 24.0317C19.0195 24.2439 18.6171 24.4488 18.3244 24.4927L16.5244 24.7488C16.4585 24.7561 16.3927 24.7634 16.3268 24.7634C16.0268 24.7634 15.7488 24.661 15.5512 24.4634C15.3098 24.2219 15.2073 23.8707 15.2658 23.4829L15.5219 21.6829C15.5658 21.3829 15.7634 20.9878 15.9829 20.7756L19.2463 17.5122C19.3049 17.6658 19.3634 17.8195 19.4439 17.9951C19.5171 18.1488 19.5976 18.3098 19.6854 18.4561C19.7585 18.5805 19.839 18.6976 19.9049 18.7854C19.9854 18.9098 20.0805 19.0268 20.139 19.0927C20.1756 19.1439 20.2049 19.1805 20.2195 19.1951C20.4024 19.4146 20.6146 19.6195 20.7976 19.7732C20.8488 19.8244 20.878 19.8537 20.8927 19.861C21.0024 19.9488 21.1122 20.0366 21.2073 20.1024C21.3244 20.1902 21.4415 20.2707 21.5658 20.3366C21.7122 20.4244 21.8732 20.5049 22.0341 20.5854C22.2024 20.6585 22.3561 20.7244 22.5098 20.7756L19.2317 24.0317ZM23.9293 19.3341L23.2561 20.0146C23.2122 20.0585 23.1537 20.0805 23.0951 20.0805C23.0732 20.0805 23.0439 20.0805 23.0293 20.0732C21.5439 19.6488 20.3585 18.4634 19.9341 16.978C19.9122 16.8976 19.9341 16.8098 19.9927 16.7585L20.6732 16.078C21.7854 14.9658 22.8463 14.9878 23.9366 16.078C24.4927 16.6341 24.7634 17.1683 24.7634 17.7244C24.7561 18.2512 24.4854 18.778 23.9293 19.3341Z" fill="white"/>
</svg>
