<svg width="40" height="40" viewBox="0 0 40 40" fill="none" xmlns="http://www.w3.org/2000/svg">
<circle cx="20" cy="20" r="20" fill="#0476FE"/>
<path d="M23.0658 12.6829H16.9341C14.2707 12.6829 12.6829 14.2707 12.6829 16.9341V23.0585C12.6829 25.7293 14.2707 27.3171 16.9341 27.3171H23.0585C25.7219 27.3171 27.3098 25.7293 27.3098 23.0658V16.9341C27.3171 14.2707 25.7293 12.6829 23.0658 12.6829ZM23.8488 18.5073L22.1585 20.6878C21.9463 20.9585 21.6463 21.1341 21.3024 21.1707C20.9585 21.2146 20.6219 21.1195 20.3512 20.9073L19.0122 19.8537C18.961 19.8098 18.9024 19.8098 18.8732 19.8171C18.8439 19.8171 18.7927 19.8317 18.7488 19.8902L17.0073 22.1512C16.8976 22.2902 16.7366 22.3634 16.5756 22.3634C16.4585 22.3634 16.3415 22.3268 16.239 22.2463C15.9976 22.0634 15.9537 21.7195 16.1366 21.478L17.878 19.2171C18.0902 18.9463 18.3902 18.7707 18.7341 18.7268C19.0707 18.6829 19.4146 18.778 19.6854 18.9902L21.0244 20.0439C21.0756 20.0878 21.1268 20.0878 21.1634 20.0805C21.1927 20.0805 21.2439 20.0658 21.2878 20.0073L22.978 17.8268C23.161 17.5854 23.5122 17.5415 23.7463 17.7317C23.9878 17.9293 24.0317 18.2732 23.8488 18.5073Z" fill="white"/>
</svg>
