<svg width="40" height="40" viewBox="0 0 40 40" fill="none" xmlns="http://www.w3.org/2000/svg">
<circle cx="20" cy="20" r="20" fill="#0476FE"/>
<path d="M16.9268 27.4268C14.9878 27.4268 13.4073 25.8536 13.4073 23.9073V21.8292C13.4073 21.339 13.8902 21.0097 14.3512 21.1707C14.5414 21.2366 14.7317 21.2805 14.9292 21.3097C15.017 21.3244 15.1048 21.339 15.1927 21.339C15.3024 21.3536 15.4195 21.361 15.5292 21.361C16.3414 21.361 17.1463 21.061 17.7829 20.5414C18.3902 21.061 19.1731 21.361 20.0073 21.361C20.8414 21.361 21.617 21.0756 22.2244 20.5488C22.8536 21.061 23.6439 21.361 24.4488 21.361C24.5731 21.361 24.7048 21.3536 24.8219 21.339C24.9097 21.3317 24.9829 21.3244 25.0634 21.3097C25.2829 21.2805 25.4805 21.2219 25.678 21.1561C26.1317 21.0024 26.6073 21.339 26.6073 21.8146V23.9073C26.6073 25.8463 25.0341 27.4268 23.0878 27.4268H16.9268Z" fill="white"/>
<path d="M27.3024 17.5048L27.0975 15.5585C26.8048 13.4365 25.839 12.5731 23.7829 12.5731H16.2097C14.1463 12.5731 13.1878 13.4365 12.8878 15.5804L12.6975 17.5121C12.6243 18.2658 12.8292 18.9975 13.2756 19.5682C13.8097 20.2634 14.6292 20.6585 15.5439 20.6585C16.4292 20.6585 17.278 20.2121 17.8195 19.5024C18.2951 20.2121 19.1073 20.6585 20.0146 20.6585C20.9219 20.6585 21.7195 20.2341 22.2024 19.5317C22.7439 20.2268 23.5853 20.6585 24.456 20.6585C25.3926 20.6585 26.2341 20.2414 26.7609 19.5097C27.1853 18.9463 27.3756 18.2365 27.3024 17.5048ZM21.0975 16.8756H18.9024C18.6024 16.8756 18.3536 16.6341 18.3536 16.3268C18.3536 16.0268 18.6024 15.778 18.9024 15.778H21.0975C21.3975 15.778 21.6463 16.0268 21.6463 16.3268C21.6463 16.6341 21.3975 16.8756 21.0975 16.8756Z" fill="white"/>
</svg>
