<svg width="40" height="40" viewBox="0 0 40 40" fill="none" xmlns="http://www.w3.org/2000/svg">
<circle cx="20" cy="20" r="20" fill="#0476FE"/>
<path d="M23.0658 12.6829H16.9341C14.2707 12.6829 12.6829 14.2707 12.6829 16.9341V23.0658C12.6829 25.7293 14.2707 27.3171 16.9341 27.3171H23.0658C25.7293 27.3171 27.3171 25.7293 27.3171 23.0658V16.9341C27.3171 14.2707 25.7293 12.6829 23.0658 12.6829ZM18.5146 22.1219L16.8683 23.7683C16.7585 23.878 16.6195 23.9293 16.4805 23.9293C16.3415 23.9293 16.1951 23.878 16.0927 23.7683L15.5439 23.2195C15.3244 23.0073 15.3244 22.6561 15.5439 22.4439C15.7561 22.2317 16.1 22.2317 16.3195 22.4439L16.4805 22.6049L17.739 21.3463C17.9512 21.1341 18.2951 21.1341 18.5146 21.3463C18.7268 21.5585 18.7268 21.9098 18.5146 22.1219ZM18.5146 17L16.8683 18.6463C16.7585 18.7561 16.6195 18.8073 16.4805 18.8073C16.3415 18.8073 16.1951 18.7561 16.0927 18.6463L15.5439 18.0976C15.3244 17.8854 15.3244 17.5341 15.5439 17.3219C15.7561 17.1098 16.1 17.1098 16.3195 17.3219L16.4805 17.4829L17.739 16.2244C17.9512 16.0122 18.2951 16.0122 18.5146 16.2244C18.7268 16.4366 18.7268 16.7878 18.5146 17ZM24.0683 23.3805H20.2268C19.9268 23.3805 19.678 23.1317 19.678 22.8317C19.678 22.5317 19.9268 22.2829 20.2268 22.2829H24.0683C24.3756 22.2829 24.6171 22.5317 24.6171 22.8317C24.6171 23.1317 24.3756 23.3805 24.0683 23.3805ZM24.0683 18.2585H20.2268C19.9268 18.2585 19.678 18.0098 19.678 17.7098C19.678 17.4098 19.9268 17.161 20.2268 17.161H24.0683C24.3756 17.161 24.6171 17.4098 24.6171 17.7098C24.6171 18.0098 24.3756 18.2585 24.0683 18.2585Z" fill="white"/>
</svg>
