<svg width="40" height="40" viewBox="0 0 40 40" fill="none" xmlns="http://www.w3.org/2000/svg">
<circle cx="20" cy="20" r="20" fill="#0476FE"/>
<path d="M25.4951 15.5L21.1488 12.9902C20.439 12.5805 19.561 12.5805 18.8439 12.9902L14.5049 15.5C13.7951 15.9098 13.3561 16.6707 13.3561 17.4976V22.5024C13.3561 23.3219 13.7951 24.0829 14.5049 24.5L18.8512 27.0098C19.561 27.4195 20.439 27.4195 21.1561 27.0098L25.5024 24.5C26.2122 24.0902 26.6512 23.3293 26.6512 22.5024V17.4976C26.6439 16.6707 26.2049 15.9171 25.4951 15.5ZM20 16.5902C20.9439 16.5902 21.7049 17.3512 21.7049 18.2951C21.7049 19.239 20.9439 20 20 20C19.0561 20 18.2951 19.239 18.2951 18.2951C18.2951 17.3585 19.0561 16.5902 20 16.5902ZM21.961 23.4098H18.039C17.4463 23.4098 17.1024 22.7512 17.4317 22.261C17.9292 21.5219 18.8951 21.0244 20 21.0244C21.1049 21.0244 22.0707 21.5219 22.5683 22.261C22.8975 22.7439 22.5463 23.4098 21.961 23.4098Z" fill="white"/>
</svg>
