<svg width="24" height="24" viewBox="0 0 24 24" fill="none" xmlns="http://www.w3.org/2000/svg">
<circle cx="12" cy="12" r="12" transform="matrix(-1 0 0 1 24 0)" fill="#1990FC"/>
<path d="M7.49621 9.57567C8.36002 12.9688 11.0312 15.6399 14.4243 16.5037C15.7088 16.8307 16.8 15.7254 16.8 14.4V13.8C16.8 13.4686 16.5307 13.2031 16.2009 13.1704C15.6438 13.1152 15.1091 12.9838 14.6074 12.7867L13.6958 13.6983C12.2132 12.9887 11.0112 11.7868 10.3017 10.3042L11.2132 9.39258C11.0162 8.89085 10.8847 8.35613 10.8295 7.799C10.7968 7.46925 10.5314 7.19995 10.2 7.19995H9.59999C8.2745 7.19995 7.1692 8.29115 7.49621 9.57567Z" fill="white" stroke="white" stroke-linecap="round" stroke-linejoin="round"/>
</svg>
