<svg width="20" height="20" viewBox="0 0 20 20" fill="none" xmlns="http://www.w3.org/2000/svg">
<path d="M19.9745 9.23179V9.18076C19.4799 2.43061 12.187 -1.91993 5.9931 0.843455C-0.852058 3.77638 -2.1301 13.1144 3.70252 17.7768C10.542 23.2434 20.609 17.9554 19.9711 9.23529L19.9745 9.23179ZM13.6696 1.6297C15.0577 2.21762 16.3014 3.20044 17.2295 4.40181L17.2439 4.424C17.2806 4.48944 17.2328 4.52938 17.1928 4.67137C16.8338 5.69079 16.3426 7.17835 16.0436 7.99362C15.8702 8.0868 14.6555 8.44177 14.2143 8.59818C14.1209 8.6237 14.0976 8.64921 14.0375 8.63812C13.8697 8.52497 11.2746 6.63363 10.4322 6.01686C10.3899 5.531 10.4177 4.15658 10.4211 3.94138C11.1723 3.35125 12.7194 2.2719 13.3974 1.76052C13.543 1.66733 13.5652 1.59634 13.6708 1.62962L13.6696 1.6297ZM2.7758 4.3752C3.7038 3.1794 4.93521 2.22319 6.31233 1.62859L6.33789 1.61972C6.40902 1.60308 6.43124 1.65633 6.55461 1.7362C7.47041 2.40621 8.79628 3.35797 9.55653 3.92038C9.6021 4.02799 9.56209 5.36913 9.57653 5.84056C9.57098 5.93707 9.59098 5.96591 9.55986 6.01693C9.40094 6.13896 6.80029 8.02696 5.95221 8.63487C5.47431 8.52394 4.16511 8.07024 3.95505 8.00146C3.62831 7.16063 3.0615 5.41127 2.79477 4.67352C2.7492 4.51489 2.69475 4.48938 2.7781 4.37844L2.7758 4.3752ZM2.04118 14.5419C1.44993 13.5136 1.06538 12.3699 0.908665 11.1964C0.897551 11.0887 0.857541 10.9179 0.939786 10.8669C1.29876 10.6029 2.89139 9.39817 3.5771 8.88457C3.63156 8.84796 3.64823 8.81912 3.69713 8.81025C3.89607 8.85906 4.21171 8.97221 4.48843 9.05762C4.96966 9.22845 5.37643 9.31276 5.68094 9.46141C5.73763 9.62004 6.55116 12.1303 6.90681 13.2184C6.94904 13.3549 7.04907 13.63 7.06351 13.7209C6.8668 14.0593 6.46003 14.6638 6.23219 15.0044L6.2233 15.0132C5.22194 14.9511 2.55561 14.6949 2.15217 14.6638C2.09548 14.6416 2.08104 14.6128 2.0388 14.544L2.04118 14.5419ZM12.2493 18.8504C10.7867 19.2309 9.17967 19.2276 7.71157 18.8449L7.68601 18.8338C7.62377 18.8049 7.64044 18.7484 7.60377 18.6208C7.57821 18.5099 7.54375 18.359 7.50152 18.1837C7.29369 17.2752 6.92361 15.7133 6.89582 15.5658C7.04141 15.2419 7.5393 14.5774 7.69823 14.3023C7.74047 14.2457 7.74047 14.2202 7.78937 14.2113C8.08834 14.2113 11.1492 14.2058 12.2105 14.2113C12.4638 14.512 12.8251 15.1398 13.0695 15.4948C13.1207 15.7078 12.4838 18.0817 12.3694 18.6952C12.3494 18.7862 12.3438 18.8206 12.2471 18.8516L12.2493 18.8504ZM17.9063 14.6041L17.8897 14.6263C17.8441 14.6828 17.7963 14.6573 17.6563 14.6773C17.5251 14.6884 17.3373 14.7061 17.1128 14.7261C15.9747 14.8226 13.9376 15.0068 13.7808 15.0134C13.7186 14.9846 13.7153 14.9369 13.6475 14.8459C13.4485 14.502 13.0295 13.9795 12.925 13.6934C13.0106 13.426 13.972 10.473 14.2987 9.47032C14.3098 9.42817 14.3587 9.42817 14.5632 9.35717C15.0645 9.19855 16.1825 8.82914 16.2736 8.80918C16.9761 9.25733 18.2764 10.3145 18.9021 10.7571C19.0243 10.8592 19.0932 10.8647 19.0955 10.9701C18.9821 12.2369 18.5487 13.5059 17.9063 14.6053L17.9063 14.6041Z" fill="white"/>
</svg>
